<svg width="2150" height="393" viewBox="0 0 2150 393" fill="none" xmlns="http://www.w3.org/2000/svg">
<path fill-rule="evenodd" clip-rule="evenodd" d="M261.357 304.455C261.335 304.192 261.204 303.951 261.204 303.666C261.204 270.131 275.561 243.6 309.607 218.799C311.202 217.639 314.174 215.625 315.835 214.486C296.124 190.539 284.979 168.889 284.979 147.809C284.979 122.92 294.07 102.628 312.273 86.9984C329.274 72.0038 349.99 64.4954 374.465 64.4954C401.912 64.4954 423.393 72.6386 438.909 88.9249C452.348 102.628 459.056 119.396 459.056 139.206C459.056 172.72 441.443 200.345 406.239 222.038L431.107 256.34C420.902 278.383 406.064 291.758 394.548 302.857L356.787 254.195C337.119 267.285 325.69 284.447 325.69 302.966C325.69 312.247 329.121 319.012 335.983 326.038C343.741 334.006 354.033 335.889 366.86 335.889C381.524 335.889 399.683 330.701 412.62 317.435C438.493 291.671 448.786 266.388 452.807 246.096C454.467 237.69 455.189 229.131 455.473 222.148H510.301C511.787 178.937 527.543 142.183 557.939 112.041C589.888 80.3659 628.829 64.5174 674.763 64.5174C711.847 64.5175 745.15 71.8505 774.673 86.5168V160.265C739.6 138.747 706.711 127.977 676.052 127.977C647.098 127.977 623.06 138.44 603.961 159.367C585.976 179.068 576.995 202.206 576.995 228.781C576.995 258.091 586.916 282.674 606.736 302.528C626.119 321.769 649.523 331.379 676.904 331.379C690.169 331.379 702.275 329.234 713.267 324.966V277.202H654.003V222.586L653.981 222.542H776.356V369.337C743.992 385.076 708.766 392.956 670.677 392.956C626.884 392.956 589.167 376.976 557.502 344.973C527.39 314.546 511.765 277.924 510.301 235.282C509.886 239.463 509.383 243.819 508.749 248.241C506.608 262.995 503.614 277.574 498.828 290.117C490.415 312.313 480.734 323.827 480.734 323.827L530.951 393H458.598C458.57 392.964 445.13 375.304 439.018 366.951C414.63 388.797 387.97 392.584 360.152 392.584C337.229 392.584 310.743 382.974 291.95 364.127C283.602 355.787 277.418 345.761 272.436 335.932L292.54 393H230.654L207.424 328.971H85.2249L61.9958 393H0L116.496 62H175.957L261.357 304.455ZM102.248 278.515H190.183L146.39 146.561L102.248 278.515ZM374.946 124.606C367.669 124.606 361.55 127.014 356.612 131.851C351.651 136.689 349.182 142.993 349.182 150.786C349.182 161.381 357.464 172.238 371.428 185C391.532 173.771 400.273 161.994 400.273 147.043C400.273 132.092 391.816 124.606 374.946 124.606Z" fill="url(#paint0_linear_1_6)"/>
<path d="M969.652 255.268H879.025V323.817H1009.26V387.605H814.698V191.163H969.652V255.268Z" fill="url(#paint1_linear_1_6)"/>
<path d="M1108.14 67.395V323.756H1239V387.605H1044.38V131.244H814.698V67.395H1108.14Z" fill="url(#paint2_linear_1_6)"/>
<path d="M1165.07 67.6699H1184.16V256H1165.07V67.6699ZM1234.17 67.6699H1258.06L1367.68 228.075H1368.2V67.6699H1387.3V256H1363.4L1253.78 94.0361H1253.26V256H1234.17V67.6699ZM1425.74 232.881L1442.24 220.672C1446.31 227.339 1452.02 232.967 1459.38 237.557C1466.74 242.059 1475.4 244.311 1485.36 244.311C1490.12 244.311 1494.97 243.575 1499.91 242.103C1504.93 240.544 1509.43 238.206 1513.41 235.089C1517.4 231.972 1520.69 228.162 1523.28 223.659C1525.88 219.157 1527.18 213.875 1527.18 207.813C1527.18 201.319 1525.88 195.908 1523.28 191.578C1520.69 187.162 1517.27 183.525 1513.02 180.668C1508.78 177.724 1503.89 175.299 1498.35 173.395C1492.89 171.403 1487.13 169.411 1481.07 167.42C1474.92 165.428 1468.82 163.22 1462.76 160.796C1456.7 158.285 1451.29 155.038 1446.52 151.055C1441.76 147.072 1437.91 142.179 1434.96 136.378C1432.02 130.49 1430.55 123.303 1430.55 114.817C1430.55 105.726 1432.37 97.9326 1436 91.4385C1439.64 84.8577 1444.36 79.446 1450.16 75.2031C1456.05 70.8737 1462.54 67.7565 1469.64 65.8516C1476.74 63.86 1483.76 62.8643 1490.68 62.8643C1503.5 62.8643 1514.41 65.1589 1523.41 69.748C1532.42 74.2507 1539.26 79.5758 1543.94 85.7236L1528.74 97.9326C1524.67 92.3044 1519.43 87.7585 1513.02 84.2949C1506.62 80.8314 1498.91 79.0996 1489.9 79.0996C1485.32 79.0996 1480.6 79.8356 1475.75 81.3076C1470.98 82.693 1466.66 84.8577 1462.76 87.8018C1458.86 90.6592 1455.7 94.3392 1453.28 98.8418C1450.94 103.258 1449.77 108.453 1449.77 114.428C1449.77 120.489 1450.9 125.468 1453.15 129.364C1455.49 133.261 1458.56 136.594 1462.37 139.365C1466.18 142.136 1470.51 144.431 1475.36 146.249C1480.29 147.981 1485.4 149.713 1490.68 151.444C1497.26 153.609 1503.85 155.947 1510.43 158.458C1517.09 160.882 1523.07 164.086 1528.35 168.069C1533.72 172.052 1538.09 177.118 1541.47 183.266C1544.84 189.413 1546.53 197.163 1546.53 206.515C1546.53 215.953 1544.71 224.092 1541.08 230.933C1537.44 237.687 1532.72 243.315 1526.92 247.817C1521.21 252.233 1514.67 255.48 1507.31 257.559C1499.95 259.723 1492.55 260.806 1485.1 260.806C1479.47 260.806 1473.8 260.2 1468.08 258.987C1462.37 257.862 1456.96 256.173 1451.85 253.922C1446.74 251.584 1441.93 248.64 1437.43 245.09C1433.02 241.54 1429.12 237.47 1425.74 232.881ZM1587.71 67.6699H1606.8V256H1587.71V67.6699ZM1656.8 67.6699H1719.28C1730.97 67.6699 1742.7 69.6182 1754.48 73.5146C1766.25 77.4111 1776.86 83.2992 1786.3 91.1787C1795.82 99.0583 1803.53 108.929 1809.42 120.792C1815.3 132.568 1818.25 146.249 1818.25 161.835C1818.25 177.594 1815.3 191.362 1809.42 203.138C1803.53 214.827 1795.82 224.612 1786.3 232.491C1776.86 240.371 1766.25 246.259 1754.48 250.155C1742.7 254.052 1730.97 256 1719.28 256H1656.8V67.6699ZM1713.95 238.985C1728.15 238.985 1740.49 236.777 1750.97 232.361C1761.53 227.945 1770.28 222.144 1777.21 214.957C1784.13 207.77 1789.33 199.588 1792.79 190.409C1796.25 181.144 1797.99 171.619 1797.99 161.835C1797.99 152.05 1796.25 142.569 1792.79 133.391C1789.33 124.126 1784.13 115.9 1777.21 108.713C1770.28 101.526 1761.53 95.7246 1750.97 91.3086C1740.49 86.8926 1728.15 84.6846 1713.95 84.6846H1675.9V238.985H1713.95ZM1858.12 67.6699H1974.89V84.6846H1877.21V149.626H1968.39V166.381H1877.21V238.985H1978V256H1858.12V67.6699ZM2015.54 67.6699H2070.74C2080.01 67.6699 2088.58 68.5791 2096.46 70.3975C2104.34 72.1292 2111.13 74.9867 2116.85 78.9697C2122.65 82.9528 2127.15 88.1481 2130.36 94.5557C2133.56 100.963 2135.16 108.756 2135.16 117.935C2135.16 124.862 2133.91 131.183 2131.4 136.897C2128.97 142.526 2125.59 147.418 2121.26 151.574C2117.02 155.73 2111.96 159.064 2106.07 161.575C2100.27 164.086 2093.9 165.688 2086.98 166.381L2142.05 256H2118.67L2066.58 167.939H2034.63V256H2015.54V67.6699ZM2067.88 151.444C2083.3 151.444 2095.16 148.674 2103.47 143.132C2111.87 137.504 2116.07 129.104 2116.07 117.935C2116.07 111.7 2114.9 106.462 2112.56 102.219C2110.22 97.9759 2107.02 94.5557 2102.95 91.958C2098.88 89.2738 2093.9 87.3255 2088.01 86.1133C2082.21 84.8145 2075.76 84.165 2068.66 84.165H2034.63V151.444H2067.88Z" fill="#0E326F"/>
<defs>
<linearGradient id="paint0_linear_1_6" x1="705.872" y1="-6.61242" x2="441.778" y2="464.072" gradientUnits="userSpaceOnUse">
<stop stop-color="#0084A9"/>
<stop offset="1" stop-color="#0D316E"/>
</linearGradient>
<linearGradient id="paint1_linear_1_6" x1="705.872" y1="-6.61242" x2="441.778" y2="464.072" gradientUnits="userSpaceOnUse">
<stop stop-color="#0084A9"/>
<stop offset="1" stop-color="#0D316E"/>
</linearGradient>
<linearGradient id="paint2_linear_1_6" x1="705.872" y1="-6.61242" x2="441.778" y2="464.072" gradientUnits="userSpaceOnUse">
<stop stop-color="#0084A9"/>
<stop offset="1" stop-color="#0D316E"/>
</linearGradient>
</defs>
</svg>
